<svg xmlns="http://www.w3.org/2000/svg" xmlns:xlink="http://www.w3.org/1999/xlink" fill="none" version="1.1" width="500" height="500" viewBox="0 0 500 500"><defs><clipPath id="master_svg0_2_0347"><rect x="0" y="0" width="500" height="500" rx="0"/></clipPath><filter id="master_svg1_2_0349" filterUnits="objectBoundingBox" color-interpolation-filters="sRGB" x="-0.05009888138285633" y="-0.04070534112357077" width="1.1001977627657127" height="1.1001977627657127"><feFlood flood-opacity="0" result="BackgroundImageFix"/><feColorMatrix in="SourceAlpha" type="matrix" values="0 0 0 0 0 0 0 0 0 0 0 0 0 0 0 0 0 0 127 0"/><feOffset dy="3" dx="0"/><feGaussianBlur stdDeviation="4"/><feColorMatrix type="matrix" values="0 0 0 0 0 0 0 0 0 0 0 0 0 0 0 0 0 0 0.1599999964237213 0"/><feBlend mode="normal" in2="BackgroundImageFix" result="effect1_dropShadow"/><feBlend mode="normal" in="SourceGraphic" in2="effect1_dropShadow" result="shape"/></filter><filter id="master_svg2_2_0351" filterUnits="objectBoundingBox" color-interpolation-filters="sRGB" x="-0.24242424242424243" y="-2.3333333333333335" width="1.4848484848484849" height="6.333333333333333"><feFlood flood-opacity="0" result="BackgroundImageFix"/><feColorMatrix in="SourceAlpha" type="matrix" values="0 0 0 0 0 0 0 0 0 0 0 0 0 0 0 0 0 0 127 0"/><feOffset dy="8" dx="0"/><feGaussianBlur stdDeviation="16"/><feColorMatrix type="matrix" values="0 0 0 0 0 0 0 0 0 0 0 0 0 0 0 0 0 0 0.1599999964237213 0"/><feBlend mode="normal" in2="BackgroundImageFix" result="effect1_dropShadow"/><feBlend mode="normal" in="SourceGraphic" in2="effect1_dropShadow" result="shape"/></filter></defs><g clip-path="url(#master_svg0_2_0347)"><rect x="0" y="0" width="500" height="500" rx="0" fill="#A0D39A" fill-opacity="1"/><g><g filter="url(#master_svg1_2_0349)"><path d="M329.526,121.9368L393.4,121.9368C402.219,121.9368,409.368,129.0862,409.368,137.9053L409.368,393.4C409.368,402.219,402.219,409.368,393.4,409.368L105.9684,409.368C97.14938,409.368,90,402.219,90,393.4L90,137.9053C90,129.0862,97.14938,121.9368,105.9684,121.9368L169.84210000000002,121.9368L169.84210000000002,90L201.779,90L201.779,121.9368L297.589,121.9368L297.589,90L329.526,90L329.526,121.9368ZM121.9368,217.747L121.9368,377.432L377.432,377.432L377.432,217.747L121.9368,217.747ZM153.87369999999999,249.684L185.8105,249.684L185.8105,281.621L153.87369999999999,281.621L153.87369999999999,249.684ZM153.87369999999999,313.558L185.8105,313.558L185.8105,345.495L153.87369999999999,345.495L153.87369999999999,313.558ZM217.747,249.684L345.495,249.684L345.495,281.621L217.747,281.621L217.747,249.684ZM217.747,313.558L297.589,313.558L297.589,345.495L217.747,345.495L217.747,313.558Z" fill="#E7FFE6" fill-opacity="1" style="mix-blend-mode:passthrough"/></g><g filter="url(#master_svg2_2_0351)"><path d="M147.00560000000002,169.8Q147.00560000000002,172.136,146.2527,174.168Q145.4998,176.2,144.1086,177.736Q142.7174,179.272,140.7697,180.136Q138.8221,181,136.4652,181L124.91011,181L124.91011,177.8L136.4652,177.8Q138.72390000000001,177.8,140.3606,176.712Q141.9973,175.624,142.8647,173.816Q143.7322,172.008,143.7322,169.8Q143.7322,167.592,142.8647,165.768Q141.9973,163.944,140.3606,162.872Q138.72390000000001,161.8,136.4652,161.8L123.2734,161.8L123.2734,181L120,181L120,158.6L136.4652,158.6Q138.8221,158.6,140.7697,159.464Q142.7174,160.328,144.1086,161.88Q145.4998,163.432,146.2527,165.464Q147.00560000000002,167.496,147.00560000000002,169.8ZM178.2011,169.8Q178.2011,172.136,177.44819999999999,174.168Q176.6954,176.2,175.3042,177.736Q173.913,179.272,171.9653,180.136Q170.01760000000002,181,167.6608,181L156.1056,181L156.1056,177.8L167.6608,177.8Q169.9194,177.8,171.55610000000001,176.712Q173.1928,175.624,174.06029999999998,173.816Q174.92770000000002,172.008,174.92770000000002,169.8Q174.92770000000002,167.592,174.06029999999998,165.768Q173.1928,163.944,171.55610000000001,162.872Q169.9194,161.8,167.6608,161.8L154.4689,161.8L154.4689,181L151.1955,181L151.1955,158.6L167.6608,158.6Q170.01760000000002,158.6,171.9653,159.464Q173.913,160.328,175.3042,161.88Q176.6954,163.432,177.44819999999999,165.464Q178.2011,167.496,178.2011,169.8ZM199.74009999999998,171.4L181.7364,171.4L181.7364,168.2L199.74009999999998,168.2L199.74009999999998,171.4ZM228.579,181L213.8157,181Q211.4262,181,209.4949,180.136Q207.5635,179.272,206.1723,177.736Q204.7812,176.2,204.0283,174.168Q203.2754,172.136,203.2754,169.8Q203.2754,167.496,204.0283,165.464Q204.7812,163.432,206.1723,161.88Q207.5635,160.328,209.4949,159.464Q211.4262,158.6,213.8157,158.6L228.579,158.6L228.579,161.8L213.8157,161.8Q211.5571,161.8,209.9368,162.872Q208.3164,163.944,207.43259999999998,165.768Q206.5488,167.592,206.5488,169.8Q206.5488,172.008,207.43259999999998,173.816Q208.3164,175.624,209.9368,176.712Q211.5571,177.8,213.8157,177.8L228.579,177.8L228.579,181ZM252.638,181L236.27100000000002,181Q234.7,181,233.39100000000002,180.248Q232.08100000000002,179.496,231.312,178.232Q230.543,176.968,230.543,175.4Q230.543,173.832,231.312,172.568Q232.08100000000002,171.304,233.39100000000002,170.552Q234.7,169.8,236.27100000000002,169.8L247.728,169.8L247.728,173L236.27100000000002,173Q235.257,173,234.536,173.704Q233.816,174.40800000000002,233.816,175.4Q233.816,176.392,234.536,177.096Q235.257,177.8,236.27100000000002,177.8L249.365,177.8L249.365,169Q249.365,168.008,248.645,167.304Q247.925,166.6,246.91,166.6L233.816,166.6L233.816,163.4L246.91,163.4Q248.514,163.4,249.807,164.152Q251.1,164.904,251.869,166.168Q252.638,167.432,252.638,169L252.638,181ZM263.637,181L262.81899999999996,181Q261.247,181,259.938,180.248Q258.629,179.496,257.85900000000004,178.232Q257.09000000000003,176.968,257.09000000000003,175.4L257.09000000000003,157L260.36400000000003,157L260.36400000000003,175.4Q260.36400000000003,176.392,261.084,177.096Q261.804,177.8,262.81899999999996,177.8L263.637,177.8L263.637,181ZM287.435,169Q287.435,170.536,286.66499999999996,171.816Q285.89599999999996,173.096,284.603,173.848Q283.31,174.6,281.706,174.6L269.169,174.6Q269.856,176.008,271.21500000000003,176.904Q272.573,177.8,274.276,177.8L284.98,177.8L284.98,181L274.276,181Q272.40999999999997,181,270.789,180.312Q269.169,179.624,267.94100000000003,178.40800000000002Q266.714,177.192,266.027,175.608Q265.339,174.024,265.339,172.2Q265.339,170.376,266.027,168.792Q266.714,167.208,267.94100000000003,165.992Q269.169,164.776,270.789,164.088Q272.40999999999997,163.4,274.276,163.4L281.706,163.4Q283.31,163.4,284.603,164.152Q285.89599999999996,164.904,286.66499999999996,166.168Q287.435,167.432,287.435,169ZM281.706,171.4Q282.721,171.4,283.44100000000003,170.696Q284.161,169.992,284.161,169Q284.161,168.008,283.44100000000003,167.304Q282.721,166.6,281.706,166.6L274.276,166.6Q272.83500000000004,166.6,271.64,167.24Q270.446,167.88,269.65999999999997,168.968Q268.874,170.056,268.678,171.4L281.706,171.4ZM293.916,181L290.64300000000003,181L290.64300000000003,163.4L302.918,163.4Q304.784,163.4,306.404,164.088Q308.024,164.776,309.252,165.992Q310.47900000000004,167.208,311.16700000000003,168.792Q311.85400000000004,170.376,311.85400000000004,172.2L311.85400000000004,181L308.581,181L308.581,172.2Q308.581,170.664,307.828,169.4Q307.075,168.136,305.78200000000004,167.368Q304.48900000000003,166.6,302.918,166.6L293.916,166.6L293.916,181ZM336.339,181L333.06600000000003,181L333.06600000000003,166.6L324.06399999999996,166.6Q322.493,166.6,321.216,167.352Q319.93899999999996,168.10399999999998,319.16999999999996,169.38400000000001Q318.401,170.664,318.401,172.2Q318.401,173.736,319.16999999999996,175Q319.93899999999996,176.264,321.216,177.016Q322.493,177.768,324.06399999999996,177.8L331.429,177.8L331.429,181L324.06399999999996,181Q322.198,181,320.578,180.312Q318.957,179.624,317.73,178.40800000000002Q316.502,177.192,315.815,175.608Q315.128,174.024,315.128,172.2Q315.128,170.376,315.815,168.792Q316.502,167.208,317.73,165.992Q318.957,164.776,320.578,164.088Q322.198,163.4,324.06399999999996,163.4L333.06600000000003,163.4L333.06600000000003,157L336.339,157L336.339,181ZM361.544,181L345.177,181Q343.606,181,342.297,180.248Q340.98699999999997,179.496,340.21799999999996,178.232Q339.449,176.968,339.449,175.4Q339.449,173.832,340.21799999999996,172.568Q340.98699999999997,171.304,342.297,170.552Q343.606,169.8,345.177,169.8L356.634,169.8L356.634,173L345.177,173Q344.163,173,343.443,173.704Q342.722,174.40800000000002,342.722,175.4Q342.722,176.392,343.443,177.096Q344.163,177.8,345.177,177.8L358.27099999999996,177.8L358.27099999999996,169Q358.27099999999996,168.008,357.551,167.304Q356.831,166.6,355.81600000000003,166.6L342.722,166.6L342.722,163.4L355.81600000000003,163.4Q357.41999999999996,163.4,358.71299999999997,164.152Q360.006,164.904,360.775,166.168Q361.544,167.432,361.544,169L361.544,181ZM384,166.6L371.725,166.6Q370.71000000000004,166.6,369.99,167.304Q369.27,168.008,369.27,169L369.27,181L365.996,181L365.996,169Q365.996,167.432,366.76599999999996,166.168Q367.53499999999997,164.904,368.844,164.152Q370.154,163.4,371.725,163.4L384,163.4L384,166.6Z" fill="#046900" fill-opacity="1"/></g></g></g></svg>